HIERARCHY
ROOT HipCenter
{
    OFFSET 0.0 0.0 -0.0
    CHANNELS 6 Xposition Yposition Zposition Zrotation Xrotation Yrotation
    JOINT Spine
    {
        OFFSET 0.0 0.12162094563245773 0.0
        CHANNELS 3 Zrotation Xrotation Yrotation
        JOINT ShoulderCenter
        {
            OFFSET 0.0 0.3336820900440216 0.0
            CHANNELS 3 Zrotation Xrotation Yrotation
            JOINT LeftShoulder
            {
                OFFSET 0.2234182357788086 0.0 0.0
                CHANNELS 3 Zrotation Xrotation Yrotation
                JOINT LeftElbow
                {
                    OFFSET 0.3044271171092987 0.0 0.0
                    CHANNELS 3 Zrotation Xrotation Yrotation
                    JOINT LeftWrist
                    {
                        OFFSET 0.3115454912185669 0.0 0.0
                        CHANNELS 3 Zrotation Xrotation Yrotation
                        JOINT LeftHand
                        {
                            OFFSET 0.03333012014627457 0.0 0.0
                            CHANNELS 3 Zrotation Xrotation Yrotation
                            End Site
                            {
                                OFFSET 0.013332046568393707 0.0 0.0
                            }
                        }
                    }
                }
            }
            JOINT RightShoulder
            {
                OFFSET -0.2234182357788086 0.0 0.0
                CHANNELS 3 Zrotation Xrotation Yrotation
                JOINT RightElbow
                {
                    OFFSET -0.3044271171092987 0.0 0.0
                    CHANNELS 3 Zrotation Xrotation Yrotation
                    JOINT RightWrist
                    {
                        OFFSET -0.3115454912185669 0.0 0.0
                        CHANNELS 3 Zrotation Xrotation Yrotation
                        JOINT RightHand
                        {
                            OFFSET -0.03333012014627457 0.0 0.0
                            CHANNELS 3 Zrotation Xrotation Yrotation
                            End Site
                            {
                                OFFSET -0.013332046568393707 0.0 0.0
                            }
                        }
                    }
                }
            }
            End Site
            {
                OFFSET 0.0 0.13347283005714417 0.0
            }
        }
    }
    JOINT LeftHip
    {
        OFFSET 0.1371600329875946 0.0 0.0
        CHANNELS 3 Zrotation Xrotation Yrotation
        JOINT LeftKnee
        {
            OFFSET 0.0 -0.4269828498363495 0.0
            CHANNELS 3 Zrotation Xrotation Yrotation
            JOINT LeftAnkle
            {
                OFFSET 0.0 -0.43514883518218994 0.0
                CHANNELS 3 Zrotation Xrotation Yrotation
                JOINT LeftFoot
                {
                    OFFSET 0.0 -0.13786180317401886 0.0
                    CHANNELS 3 Zrotation Xrotation Yrotation
                    End Site
                    {
                        OFFSET 0.0 0.0 0.055144719779491425
                    }
                }
            }
        }
    }
    JOINT RightHip
    {
        OFFSET -0.1371600329875946 0.0 0.0
        CHANNELS 3 Zrotation Xrotation Yrotation
        JOINT RightKnee
        {
            OFFSET 0.0 -0.4269828498363495 0.0
            CHANNELS 3 Zrotation Xrotation Yrotation
            JOINT RightAnkle
            {
                OFFSET 0.0 -0.43514883518218994 0.0
                CHANNELS 3 Zrotation Xrotation Yrotation
                JOINT RightFoot
                {
                    OFFSET 0.0 -0.13786180317401886 0.0
                    CHANNELS 3 Zrotation Xrotation Yrotation
                    End Site
                    {
                        OFFSET 0.0 0.0 0.055144719779491425
                    }
                }
            }
        }
    }
}
MOTION
Frames: 10
Frame Time: 0.03333333333333333
-0.38499999046325684 -0.8759999871253967 -0.5149999856948853 75.00494604600321 61.55052018554553 138.35955237542706 16.216376393272252 17.844933841081467 -6.640876328271644 -2.2182851529383994e-06 4.886997168730843e-07 -4.091878558611659 101.58904709589382 -9.671474342280558 -150.93034423316067 1.1920417220709574e-06 -1.0818115771994224e-06 99.34738453332983 2.6744411106676204e-06 -68.40052729721417 30.087728578925795 0.0 0.0 -3.1805546814635164e-15 -109.39225345799225 17.045389512683663 144.3325426186592 -2.009081351735269e-06 -3.6666965737368744e-07 -94.49382577120133 -4.2615225453071466e-06 -78.15405206420411 -40.339115149506355 0.0 0.0 6.361109362927033e-15 95.11664045379469 -34.89178524142996 -161.57337496470421 126.34226378739952 4.133901655077497 -179.34597414567517 51.99154082312841 -19.753333989817374 31.3359928155377 3.531125038440127e-31 6.3611093629270335e-15 -6.3611093629270335e-15 -113.58178010848371 -47.41424362899991 167.49629460206967 -113.7287125476929 35.64240039175113 164.45442960758027 -62.414324691515404 -29.36266686983193 -75.76274266901089 7.951386703658791e-16 2.758691436281349e-33 3.9756933518293955e-16
-0.4050000011920929 -0.8579999804496765 -0.5659999847412109 66.21799245738235 58.203161263906004 164.23712028195172 19.129819211050574 15.3481697282784 -5.828308332153327 1.778726626744102e-06 -1.1422441666955995e-06 -7.764067229126853 99.4730484539739 -3.125627273510561 -157.18925273604313 4.270168384067242e-07 3.1948387438054868e-06 96.58072804895673 -4.824492203673982e-06 -72.27569732710822 30.43776804954345 -3.531125038440127e-31 6.3611093629270335e-15 6.3611093629270335e-15 -110.70016289227681 26.3262426975788 140.72885702180685 -1.7359403188314504e-06 1.1490308325615699e-06 -85.73971638731051 5.054408466335928e-05 -80.4812982887539 -38.813426832555635 1.5902773407317584e-15 -8.827812596100317e-32 -6.3611093629270335e-15 100.88430612781079 -51.4394982649815 -177.27081743273618 128.68313161768498 20.9259955672895 -177.68629500568605 49.98490227602899 -24.72122043099629 31.810708061338097 -3.1805546814635168e-15 -1.7655625192200634e-31 6.3611093629270335e-15 -109.34601175290086 -43.621472821651494 165.76828677955896 -107.40900130653054 25.525071046535036 164.66423070278475 -59.12661985448906 -28.34580222982292 -86.0178115524954 0.0 0.0 0.0
-0.421999990940094 -0.8360000252723694 -0.6159999966621399 58.760794557585875 53.945280400589155 -176.78399671548527 18.519731470579202 16.016386123721166 -6.744246691421103 -3.0634577762191652e-06 -4.809359857919537e-08 -4.727429759257933 99.31398859630416 3.4414164434643344 -159.88580847275566 -1.9141808043944807e-06 8.933947391910895e-07 93.52914641420092 -5.661808121060733e-06 -66.50606922871202 30.767234619182815 -7.951386703658792e-16 5.517382872562698e-33 -7.951386703658792e-16 -112.1450194435394 35.62600070078678 135.51089835887265 2.2008791645749115e-06 2.5464652890482066e-06 -77.89968130828747 4.763306918806601e-05 -84.75058945766962 -38.839759001539264 7.95138670365879e-15 -3.1805546814635164e-15 2.2069531490250793e-31 114.42410154180422 -58.46525905548331 -171.01541131836862 137.09569681846838 29.08959424345699 -177.1226143007428 53.149903609922745 -31.652097103210576 40.35941209241722 -3.180554681463516e-15 -6.3611093629270335e-15 1.2722218725854067e-14 -111.51620787171109 -48.07045324906974 168.75507343757656 -100.82717256308936 24.31030730142305 162.52497034533522 -65.51644325448859 -27.451184027057913 -109.22038245906334 0.0 0.0 0.0
-0.4359999895095825 -0.8109999895095825 -0.6669999957084656 54.54453169695986 48.318747752958224 -163.358236533669 18.250727361100886 16.73373389267467 -8.928456896096174 -2.802658736169061e-06 9.189631910830557e-07 0.2948564040211091 98.78220478107299 8.685633987511155 -160.6210247972258 -7.840202616024968e-07 -1.657715100313166e-06 88.4819009320843 -5.728213838568359e-06 -63.16154774981743 30.298594179509724 0.0 0.0 -1.987846675914698e-16 -116.77444543466342 42.89013609962479 130.639854192951 3.94272656816762e-07 1.3890408579639127e-06 -71.39272439342187 179.99982707387048 -89.02885582731223 138.82700955088936 -1.5902773407317582e-15 -6.3611093629270335e-15 3.1805546814635168e-15 126.4987931223603 -58.22138855321256 -156.72180350136497 142.2324701934106 27.733952895485174 -177.51512015283862 53.95196699591571 -35.0559653963547 43.332436870864235 3.531125038440127e-31 -6.3611093629270335e-15 6.3611093629270335e-15 -117.21280474243773 -53.411240225177174 171.8653720979266 -94.5379404463361 27.414317005339154 159.92584358717278 -66.8894426376913 -24.669974575916015 -113.70406004481494 3.1805546814635168e-15 8.827812596100317e-32 3.1805546814635168e-15
-0.45500001311302185 -0.7839999794960022 -0.7250000238418579 51.84275634450474 42.99491662038473 -153.40385072588688 17.096100339350933 17.007769910260627 -10.424578632018392 -3.381114171020377e-06 -1.431188653196636e-07 4.47900897027974 98.94423015546752 11.14967921869871 -162.39174791147911 -3.553753646108496e-07 -6.241839698819055e-07 83.13638680317355 1.3238664769094543e-06 -45.75083660907465 27.717134556136447 -1.987846675914698e-16 -9.267479043757658e-34 5.342337941520751e-16 -124.11576476140007 47.370701573190985 128.1963622985191 -1.6080112731142834e-06 2.03839795864096e-06 -65.75686353470114 179.99984420659652 -89.0282502281645 140.4553885994841 9.54166404439055e-15 3.1805546814635168e-15 -2.648343778830095e-31 130.77714771035582 -54.89151155580664 -148.41772274999087 145.75952682205366 24.803501358238705 -177.95941751281055 53.36139810127553 -42.8706592354211 47.17621271332818 -6.3611093629270335e-15 -6.3611093629270335e-15 6.3611093629270335e-15 -126.9966492012631 -55.55523570707573 169.38540440571106 -91.02207203141842 30.403851125158106 155.74565701922396 -66.92428308433072 -28.41367902067749 -113.92152271442858 -6.361109362927033e-15 -8.827812596100317e-32 1.5902773407317582e-15
-0.4779999852180481 -0.7519999742507935 -0.7839999794960022 51.809070406022244 38.16574215830826 -147.14470813162788 15.989896694201754 15.891965981543407 -8.75130520715586 4.290553396177e-06 -1.8556068661707362e-06 5.9524862742561435 100.81013261560786 11.755567673943991 -165.13204663265887 -2.255346637618967e-06 3.4479161616654e-06 80.92134127201558 -1.951452424730511e-06 -20.418125050131295 29.73907064358001 -1.5902773407317584e-15 -5.517382872562698e-33 3.975693351829396e-16 -129.48763890642343 49.196124225070164 126.8261581369758 1.1818002968529294e-06 -1.1200303526551773e-06 -61.93727764221897 -0.0001892575949124804 -89.83683564985479 -36.33984002289767 4.770832022195274e-15 1.590277340731758e-15 -3.1805546814635164e-15 126.13419680685406 -52.690782532340975 -150.71810805710228 147.8644398959194 23.57824481926978 178.63047918835628 60.51740093308197 -50.54090371946078 50.345890931560774 0.0 0.0 6.361109362927033e-15 -137.17635411174598 -54.11113011923833 158.77597203009825 -91.06590204768173 29.85166911450025 153.86544440249173 -67.84397026562802 -32.2623545501207 -117.21598394716301 0.0 0.0 0.0
-0.5009999871253967 -0.7200000286102295 -0.8420000076293945 51.874804393619534 34.49241407169483 -141.41750912986478 15.432080322186135 15.08781004548789 -7.129107614744579 -2.2449328827525413e-06 -1.615408600703751e-06 5.9206758316263475 102.37714051030154 12.648180255247132 -167.52906123041436 -4.262759054351694e-06 -2.0522299075368425e-06 80.56096014493482 -8.615803440574402e-07 -13.217068698963539 36.02946949797822 7.951386703658792e-16 -6.3611093629270335e-15 -7.951386703658792e-16 -131.137047123043 48.68569981474362 125.0932805786817 -5.242480954380547e-07 1.1916009608959934e-06 -62.31317318693006 -179.99999062148464 -88.77493354374487 143.33329026491407 -6.3611093629270335e-15 -1.5902773407317582e-15 -3.1805546814635168e-15 116.11863994079432 -50.65698125163428 -154.84831746690614 148.7242020467633 21.627451612153113 174.84747132442416 69.99755695019863 -47.263533605511 48.77329782862902 -6.3611093629270335e-15 -1.7655625192200634e-31 3.1805546814635168e-15 -144.2836487639687 -51.16154339357771 150.62605800929242 -93.63308045735312 30.717318196155134 152.5154315269248 -68.631602610222 -34.99720045854707 -117.26907084131327 0.0 0.0 3.1805546814635168e-15
-0.5220000147819519 -0.6859999895095825 -0.9049999713897705 52.12503087487367 32.74815706675213 -136.11327653691333 16.14185258899338 14.199677943824248 -6.430176197775944 -4.345299015780048e-06 2.3912431725359173e-06 5.147854229666096 104.82759108603747 15.603413341521382 -169.9989554019299 -4.812319765907815e-06 3.877073172774063e-06 78.21639705407675 -1.972618528355663e-06 -7.4289021478323045 40.187131996091374 1.5902773407317584e-15 0.0 0.0 -132.67014905845025 45.44492582837688 125.80956645849352 -7.310485834257596e-08 8.323290246342394e-08 -65.46651467905781 0.0002233501994262095 -89.22399366974842 -35.5730012052804 -1.5902773407317582e-15 -6.3611093629270335e-15 3.1805546814635168e-15 100.82095757428564 -41.38004100430661 -151.11572123227242 147.0570330820001 13.113335379529941 175.03189065977648 72.07374214637889 -38.51774495255428 38.23836640061458 0.0 -6.3611093629270335e-15 0.0 -147.83217094690642 -48.72669969572284 145.05867972831402 -97.38325034212112 32.53269214199768 152.76068702350332 -68.64389354266888 -36.73874383876924 -113.08838878988693 -1.2722218725854067e-14 6.3611093629270335e-15 -6.361109362927033e-15
-0.5440000295639038 -0.6489999890327454 -0.9700000286102295 51.59672501099886 30.24072858393627 -128.72505292225068 15.256235285788954 12.338928792562331 -5.3670269396507 -2.360469001963033e-06 -5.198075562282649e-07 1.686846101469326 108.37511381677452 19.140463409768643 -170.29994428386135 -2.5737752149951846e-07 1.7289536493396488e-06 71.50078291748567 -6.413571952349038e-06 -6.279586291266056 45.04903064655279 -1.5902773407317588e-15 1.1034765745125397e-32 -7.951386703658794e-16 -132.60313000596992 40.80691212276617 127.85808567887366 2.5141020334713758e-08 2.2033622908081628e-06 -70.42427132832186 0.0002639774398915196 -89.06231781660648 -36.30580337215651 1.5902773407317592e-15 6.361109362927035e-15 -4.770832022195277e-15 87.59432556720722 -27.683225458808703 -129.87568397471583 147.2770035405419 -2.407629496775614 -179.0044231370664 71.59921132960143 -28.123188578793787 28.592972564177085 6.3611093629270335e-15 -8.827812596100317e-32 -1.5902773407317584e-15 -149.15113977214946 -45.70625022652612 142.43373774299351 -101.9747779113744 34.72144410700976 155.1958315400716 -71.03408086098061 -40.37272418474878 -108.49256853422317 -6.361109362927032e-15 0.0 0.0
-0.5669999718666077 -0.6140000224113464 -1.0369999408721924 49.22224477586885 29.182058826852565 -118.82668689826741 14.36191059614143 11.3342981031916 -4.206873532902309 -2.2360969393107066e-06 -1.4882430687016783e-07 -3.184260442346478 112.03804776649338 20.419756196455932 -166.9973739246263 -4.2539710984720424e-07 -3.111252429895354e-06 59.604784544883955 -2.051313433166841e-06 -6.54071281424985 50.374849923243 0.0 0.0 7.951386703658792e-16 -132.88418946814772 36.66222330230006 132.7660839411866 -1.3409664866467568e-07 -5.45183812467259e-08 -75.24947557831557 1.3716437874835124e-05 -82.60914763344852 -34.44756568628112 0.0 6.361109362927033e-15 0.0 82.27638186799373 -21.092823230628262 -120.18242567069046 150.33429840314372 -9.731964736372127 -175.6521399055085 71.23713095417816 -22.648616221388128 22.715446864841784 6.3611093629270335e-15 -5.29668755766019e-31 -9.54166404439055e-15 -146.86347390913983 -43.38611914210128 141.045430396393 -106.29135637038868 34.535060853422635 157.28762793825064 -74.20710393421473 -43.93114184416211 -109.08992319958811 0.0 -6.3611093629270335e-15 0.0
